<svg height="480pt" viewBox="0 0 480 480" width="480pt" xmlns="http://www.w3.org/2000/svg" xmlns:xlink="http://www.w3.org/1999/xlink"><linearGradient id="a"><stop offset="0" stop-color="#e93e3a"/><stop offset=".352" stop-color="#ed6a3c"/><stop offset=".705" stop-color="#f3903f"/><stop offset="1" stop-color="#fdc70c"/></linearGradient><linearGradient id="b" gradientUnits="userSpaceOnUse" x1="240" x2="240" xlink:href="#a" y1="481.336" y2="-54.024"/><linearGradient id="c" gradientUnits="userSpaceOnUse" x1="40" x2="40" xlink:href="#a" y1="481.336" y2="-54.024"/><linearGradient id="d" gradientUnits="userSpaceOnUse" x1="72" x2="72" xlink:href="#a" y1="481.336" y2="-54.024"/><linearGradient id="e" gradientUnits="userSpaceOnUse" x1="104" x2="104" xlink:href="#a" y1="481.336" y2="-54.024"/><linearGradient id="f" gradientUnits="userSpaceOnUse" x1="288" x2="288" xlink:href="#a" y1="481.336" y2="-54.024"/><path d="m440 0h-400c-22.082031.0273438-39.9726562 17.917969-40 40v400c.0273438 22.082031 17.917969 39.972656 40 40h400c22.082031-.027344 39.972656-17.917969 40-40v-400c-.027344-22.082031-17.917969-39.9726562-40-40zm-424 40c0-13.253906 10.746094-24 24-24h400c13.253906 0 24 10.746094 24 24v56h-448zm424 424h-400c-13.253906 0-24-10.746094-24-24v-328h448v328c0 13.253906-10.746094 24-24 24zm0 0" fill="url(#b)"/><path d="m43.039062 48.640625c-2.980468-1.214844-6.402343-.558594-8.71875 1.679687-3.09375 3.15625-3.09375 8.203126 0 11.359376l1.199219.960937c.445313.300781.929688.542969 1.441407.71875.453124.230469.9375.394531 1.4375.480469.53125.089844 1.066406.144531 1.601562.160156 3.25.019531 6.1875-1.929688 7.433594-4.933594 1.246094-3 .554687-6.457031-1.753906-8.746094-.765626-.722656-1.660157-1.292968-2.640626-1.679687zm0 0" fill="url(#c)"/><path d="m66.320312 50.320312c-1.460937 1.535157-2.289062 3.5625-2.320312 5.679688.011719 1.046875.230469 2.078125.640625 3.039062.40625.96875.972656 1.863282 1.679687 2.640626 3.15625 3.09375 8.203126 3.09375 11.359376 0 .707031-.777344 1.273437-1.671876 1.679687-2.640626.410156-.960937.628906-1.992187.640625-3.039062.019531-3.25-1.929688-6.1875-4.933594-7.433594-3-1.246094-6.457031-.554687-8.746094 1.753906zm0 0" fill="url(#d)"/><path d="m100.960938 48.640625c-.96875.40625-1.863282.972656-2.640626 1.679687-1.460937 1.535157-2.289062 3.5625-2.320312 5.679688.011719 1.046875.230469 2.078125.640625 3.039062.726563 2.011719 2.308594 3.59375 4.320313 4.320313.960937.410156 1.992187.628906 3.039062.640625 3.25.019531 6.1875-1.929688 7.433594-4.933594 1.246094-3 .554687-6.457031-1.753906-8.746094-2.300782-2.269531-5.742188-2.933593-8.71875-1.679687zm0 0" fill="url(#e)"/><path d="m408 32h-240c-13.253906 0-24 10.746094-24 24s10.746094 24 24 24h240c13.253906 0 24-10.746094 24-24s-10.746094-24-24-24zm0 32h-240c-4.417969 0-8-3.582031-8-8s3.582031-8 8-8h240c4.417969 0 8 3.582031 8 8s-3.582031 8-8 8zm0 0" fill="url(#f)"/><path d="m288 192c-17.929688-.804688-35.363281 6.003906-48 18.742188-12.636719-12.738282-30.070312-19.546876-48-18.742188-35.328125.039062-63.960938 28.671875-64 64 0 76.238281 104.207031 125.214844 108.648438 127.265625 2.125.980469 4.578124.980469 6.703124 0 4.441407-2.050781 108.648438-51.027344 108.648438-127.265625-.039062-35.328125-28.671875-63.960938-64-64zm-48 175.078125c-17.351562-8.8125-96-52.0625-96-111.078125.027344-26.5 21.5-47.972656 48-48 16.339844-1.214844 32.070312 6.476562 41.144531 20.121094 1.550781 2.261718 4.113281 3.613281 6.855469 3.613281s5.304688-1.351563 6.855469-3.613281c9.074219-13.644532 24.804687-21.335938 41.144531-20.121094 26.5.027344 47.972656 21.5 48 48 0 59.015625-78.648438 102.265625-96 111.078125zm0 0" fill="url(#b)"/></svg>