<svg height="480pt" viewBox="0 0 480 480" width="480pt" xmlns="http://www.w3.org/2000/svg" xmlns:xlink="http://www.w3.org/1999/xlink"><linearGradient id="a"><stop offset="0" stop-color="#e93e3a"/><stop offset=".35" stop-color="#ed683c"/><stop offset=".7" stop-color="#f3903f"/><stop offset="1" stop-color="#fdc70c"/></linearGradient><linearGradient id="b" gradientUnits="userSpaceOnUse" x1="80.000001" x2="80.000001" xlink:href="#a" y1="487.92" y2="-10.512"/><linearGradient id="c" gradientUnits="userSpaceOnUse" x1="400.000001" x2="400.000001" xlink:href="#a" y1="487.92" y2="-10.512"/><linearGradient id="d" gradientUnits="userSpaceOnUse" x1="240.000001" x2="240.000001" xlink:href="#a" y1="487.92" y2="-10.512"/><linearGradient id="e" gradientUnits="userSpaceOnUse" x1="143.83081" x2="143.83081" xlink:href="#a" y1="487.923529" y2="-10.508471"/><linearGradient id="f" gradientUnits="userSpaceOnUse" x1="104.000001" x2="104.000001" xlink:href="#a" y1="487.92" y2="-10.512"/><linearGradient id="g" gradientUnits="userSpaceOnUse" x1="143.834859" x2="143.834859" xlink:href="#a" y1="487.919257" y2="-10.512743"/><linearGradient id="h" gradientUnits="userSpaceOnUse" x1="336.165757" x2="336.165757" xlink:href="#a" y1="487.918407" y2="-10.513593"/><linearGradient id="i" gradientUnits="userSpaceOnUse" x1="376.000001" x2="376.000001" xlink:href="#a" y1="487.92" y2="-10.512"/><linearGradient id="j" gradientUnits="userSpaceOnUse" x1="336.171472" x2="336.171472" xlink:href="#a" y1="487.917778" y2="-10.514222"/><path d="m152 416h-8v-55.601562c.003906-1.402344-.363281-2.78125-1.0625-4l-55.203125-95.597657c-5.023437-8.660156-13.800781-14.480469-23.734375-15.738281v-53.0625c0-17.671875-14.328125-32-32-32s-32 14.328125-32 32v176c0 1.816406.617188 3.582031 1.753906 5l30.246094 37.808594v5.191406h-8c-4.417969 0-8 3.582031-8 8v48c0 4.417969 3.582031 8 8 8h128c4.417969 0 8-3.582031 8-8v-48c0-4.417969-3.582031-8-8-8zm-105.753906-13-30.246094-37.808594v-173.191406c0-8.835938 7.164062-16 16-16s16 7.164062 16 16v55.238281c-1.371094.53125-2.707031 1.144531-4 1.839844-15.257812 8.875-20.496094 28.402344-11.726562 43.722656l45.726562 79.199219 13.855469-8-45.71875-79.199219c-4.382813-7.632812-1.800781-17.371093 5.785156-21.832031 1.609375-.941406 3.378906-1.570312 5.222656-1.855469.261719-.042969.535157-.097656.800781-.160156.675782-.121094 1.367188-.171875 2.054688-.152344 5.730469-.042969 11.03125 3.019531 13.863281 8l54.136719 93.734375v53.464844h-80v-8c0-1.816406-.617188-3.582031-1.753906-5zm97.753906 61h-112v-32h112zm0 0" fill="url(#b)"/><path d="m448 160c-17.671875 0-32 14.328125-32 32v53.0625c-9.929688 1.261719-18.703125 7.082031-23.726562 15.738281l-55.203126 95.605469c-.699218 1.21875-1.066406 2.597656-1.0625 4v55.59375h-8.007812c-4.417969 0-8 3.582031-8 8v48c0 4.417969 3.582031 8 8 8h128c4.417969 0 8-3.582031 8-8v-48c0-4.417969-3.582031-8-8-8h-8v-5.191406l30.246094-37.808594c1.136718-1.417969 1.753906-3.183594 1.753906-5v-176c0-17.671875-14.328125-32-32-32zm0 304h-112v-32h112zm16-98.808594-30.246094 37.808594c-1.136718 1.417969-1.753906 3.183594-1.753906 5v8h-80v-53.464844l54.136719-93.734375c2.832031-4.980469 8.136719-8.039062 13.863281-8 .691406-.015625 1.382812.035157 2.0625.160157.257812.0625.53125.117187.800781.160156 1.808594.273437 3.546875.886718 5.128907 1.800781 7.640624 4.433594 10.269531 14.207031 5.878906 21.878906l-45.71875 79.199219 13.855468 8 45.726563-79.199219c4.855469-7.960937 5.90625-17.671875 2.859375-26.484375-3.042969-8.816406-9.859375-15.808594-18.59375-19.078125v-55.238281c0-8.835938 7.164062-16 16-16s16 7.164062 16 16zm0 0" fill="url(#c)"/><path d="m344 152c.046875-51.058594-36.976562-94.597656-87.378906-102.753906-50.402344-8.160156-99.269532 21.472656-115.335938 69.933594-16.066406 48.464843 5.421875 101.421874 50.714844 124.988281v99.832031c0 1.242188.285156 2.464844.839844 3.574219l23.160156 46.3125v30.113281c0 13.253906 10.746094 24 24 24s24-10.746094 24-24v-30.113281l23.199219-46.3125c.539062-1.113281.8125-2.335938.800781-3.574219v-99.832031c34.382812-17.886719 55.964844-53.410157 56-92.167969zm-92.945312 232h-22.109376l-17.90625-35.800781 28.960938-11.582031 28.960938 11.582031zm-43.054688-192h64v16h-64zm40 32h24v9.886719c-7.6875 3.03125-15.769531 4.953125-24 5.707031zm24-48h-64v-24c0-13.253906 10.746094-24 24-24h16c13.253906 0 24 10.746094 24 24zm-64 48h24v15.59375c-8.230469-.753906-16.3125-2.675781-24-5.707031zm24 31.59375v66.992188l-24 9.597656v-81.273438c7.785156 2.507813 15.84375 4.078125 24 4.683594zm16 168.40625c0 4.417969-3.582031 8-8 8s-8-3.582031-8-8v-24h16zm24-91.816406-24-9.597656v-66.992188c8.15625-.605469 16.214844-2.175781 24-4.683594zm16-106.519532v-73.664062c-.027344-22.082031-17.917969-39.972656-40-40h-16c-22.082031.027344-39.972656 17.917969-40 40v73.664062c-32.652344-21.25-47.445312-61.441406-36.363281-98.789062 11.082031-37.351562 45.40625-62.96875 84.363281-62.96875s73.28125 25.617188 84.363281 62.96875c11.082031 37.347656-3.710937 77.539062-36.363281 98.789062zm0 0" fill="url(#d)"/><path d="m232 0h16v32h-16zm0 0" fill="url(#d)"/><path d="m126.867188 50.171875 11.316406-11.3125 22.625 22.628906-11.316406 11.3125zm0 0" fill="url(#e)"/><path d="m88 144h32v16h-32zm0 0" fill="url(#f)"/><path d="m126.871094 253.820312 22.628906-22.628906 11.3125 11.316406-22.625 22.625zm0 0" fill="url(#g)"/><path d="m319.195312 242.507812 11.3125-11.3125 22.628907 22.628907-11.316407 11.3125zm0 0" fill="url(#h)"/><path d="m360 144h32v16h-32zm0 0" fill="url(#i)"/><path d="m319.195312 61.484375 22.625-22.625 11.316407 11.3125-22.628907 22.628906zm0 0" fill="url(#j)"/></svg>